<svg width="593" height="428" viewBox="0 0 593 428" fill="none" xmlns="http://www.w3.org/2000/svg">
<g clip-path="url(#clip0_12_407)">
<path opacity="0.1" d="M344.543 75.4812C306.527 74.1578 270.29 61.8647 235.741 48.4178C201.192 34.9708 166.948 20.0693 129.822 12.9439C105.952 8.35581 78.6532 7.71053 59.424 20.5286C40.9154 32.86 34.937 54.1487 31.7212 73.9008C29.3025 88.7641 27.8994 104.404 34.5111 118.321C39.1137 127.978 47.2815 136.099 52.9323 145.352C72.5874 177.545 58.6924 217.246 37.3884 248.706C27.3971 263.47 15.806 277.519 8.09684 293.219C0.387669 308.919 -3.18301 326.905 3.56525 342.916C10.2534 358.775 26.185 370.707 43.4487 379.09C78.5113 396.103 119.825 400.969 160.113 403.758C249.292 409.867 338.952 407.22 428.367 404.573C461.458 403.589 494.697 402.599 527.248 397.464C545.325 394.615 563.992 390.098 577.118 379.194C593.775 365.348 597.908 341.91 586.743 324.548C568.016 295.434 516.241 288.199 503.149 256.952C495.947 239.754 503.345 220.592 513.817 204.641C536.273 170.425 573.924 140.403 575.906 101.287C577.27 74.4203 559.171 47.5209 531.185 34.8068C501.855 21.4692 461.18 23.1535 439.543 45.1968C417.262 67.9074 378.104 76.646 344.543 75.4812Z" fill="#89ABD9"/>
<path d="M132.262 396.485C132.262 396.485 102.234 373.747 96.5612 344.825C94.2607 332.677 88.0903 321.604 78.9753 313.266C74.6149 309.344 69.9053 305.83 64.9055 302.767" stroke="#535461" stroke-width="2" stroke-miterlimit="10"/>
<path d="M61.2311 284.546C63.8627 288.111 65.0529 303.221 65.0529 303.221C65.0529 303.221 50.9832 297.67 48.3461 294.11C47.0798 292.399 46.5442 290.254 46.857 288.147C47.1698 286.04 48.3054 284.144 50.0141 282.875C51.7227 281.607 53.8644 281.07 55.968 281.384C58.0716 281.697 59.9648 282.835 61.2311 284.546Z" fill="#89ABD9"/>
<path d="M86.4661 296.402C86.7391 300.826 79.5486 314.158 79.5486 314.158C79.5486 314.158 70.742 301.832 70.4636 297.408C70.3577 295.299 71.0857 293.233 72.4901 291.658C73.8944 290.082 75.8618 289.125 77.966 288.993C80.0702 288.86 82.1418 289.564 83.7318 290.95C85.3218 292.337 86.3023 294.296 86.4606 296.402H86.4661Z" fill="#89ABD9"/>
<path d="M110.926 330.481C108.938 334.44 96.0043 342.315 96.0043 342.315C96.0043 342.315 94.623 327.222 96.6103 323.263C97.5886 321.401 99.2576 319.998 101.258 319.356C103.259 318.714 105.431 318.885 107.307 319.831C109.183 320.777 110.614 322.423 111.29 324.415C111.967 326.407 111.836 328.585 110.926 330.481Z" fill="#89ABD9"/>
<path d="M123.642 360.426C122.348 364.664 110.931 374.611 110.931 374.611C110.931 374.611 107.017 359.972 108.311 355.729C108.932 353.693 110.337 351.987 112.214 350.988C114.091 349.988 116.288 349.777 118.321 350.4C120.354 351.023 122.057 352.429 123.054 354.309C124.052 356.19 124.263 358.39 123.642 360.426Z" fill="#89ABD9"/>
<path d="M66.5325 324.876C70.9003 325.466 84.7081 319.221 84.7081 319.221C84.7081 319.221 73.0569 309.553 68.6673 308.963C66.5604 308.679 64.4274 309.245 62.7375 310.537C61.0475 311.829 59.9391 313.74 59.656 315.85C59.3729 317.96 59.9383 320.097 61.228 321.789C62.5176 323.482 64.4257 324.592 66.5325 324.876Z" fill="#89ABD9"/>
<path d="M81.8472 359.715C86.215 358.966 97.5003 348.877 97.5003 348.877C97.5003 348.877 83.4905 343.146 79.1282 343.895C78.0838 344.067 77.0836 344.444 76.1854 345.004C75.2872 345.565 74.5087 346.298 73.895 347.162C73.2812 348.026 72.8444 349.002 72.6095 350.036C72.3747 351.07 72.3466 352.14 72.5269 353.184C72.7071 354.229 73.0921 355.227 73.6597 356.122C74.2273 357.017 74.9662 357.79 75.8337 358.397C76.7013 359.005 77.6803 359.434 78.7143 359.66C79.7483 359.886 80.8168 359.905 81.8581 359.715H81.8472Z" fill="#89ABD9"/>
<path d="M101.366 391.536C105.794 391.536 118.624 383.503 118.624 383.503C118.624 383.503 105.788 375.481 101.36 375.481C99.2346 375.481 97.196 376.327 95.6929 377.832C94.1898 379.338 93.3454 381.38 93.3454 383.509C93.3454 385.638 94.1898 387.68 95.6929 389.185C97.196 390.691 99.2346 391.536 101.36 391.536H101.366Z" fill="#89ABD9"/>
<path d="M423.977 199.823C423.977 199.823 442.486 166.985 470.385 157.524C482.1 153.628 492.238 146.031 499.278 135.875C502.58 131.019 505.429 125.87 507.79 120.492" stroke="#535461" stroke-width="2" stroke-miterlimit="10"/>
<path d="M525.305 114.477C522.127 117.561 507.336 120.755 507.336 120.755C507.336 120.755 510.967 106.044 514.145 102.955C515.679 101.516 517.715 100.739 519.815 100.789C521.916 100.84 523.912 101.715 525.375 103.225C526.838 104.736 527.651 106.761 527.637 108.866C527.624 110.97 526.786 112.985 525.305 114.477Z" fill="#89ABD9"/>
<path d="M516.94 141.07C512.572 141.934 498.448 136.564 498.448 136.564C498.448 136.564 509.477 126.174 513.817 125.326C514.859 125.095 515.937 125.074 516.988 125.265C518.038 125.456 519.04 125.856 519.934 126.44C520.828 127.024 521.596 127.782 522.194 128.668C522.792 129.554 523.207 130.55 523.415 131.599C523.623 132.648 523.62 133.727 523.405 134.775C523.191 135.822 522.77 136.816 522.167 137.699C521.564 138.581 520.791 139.334 519.893 139.912C518.996 140.491 517.992 140.885 516.94 141.07Z" fill="#89ABD9"/>
<path d="M486.497 169.878C482.314 168.429 472.809 156.639 472.809 156.639C472.809 156.639 487.55 153.259 491.743 154.708C492.751 155.043 493.682 155.575 494.482 156.273C495.283 156.971 495.937 157.821 496.407 158.775C496.877 159.728 497.153 160.765 497.219 161.826C497.285 162.887 497.141 163.951 496.793 164.955C496.446 165.96 495.903 166.885 495.195 167.678C494.488 168.471 493.63 169.114 492.672 169.572C491.714 170.03 490.675 170.293 489.615 170.346C488.555 170.398 487.495 170.239 486.497 169.878Z" fill="#89ABD9"/>
<path d="M458.521 186.48C454.153 185.758 442.819 175.724 442.819 175.724C442.819 175.724 456.79 169.894 461.152 170.616C463.252 170.962 465.129 172.129 466.369 173.861C467.609 175.592 468.112 177.746 467.767 179.849C467.422 181.952 466.256 183.832 464.527 185.074C462.799 186.317 460.648 186.82 458.548 186.475L458.521 186.48Z" fill="#89ABD9"/>
<path d="M486.114 125.064C486.109 129.499 494.14 142.366 494.14 142.366C494.14 142.366 502.161 129.515 502.161 125.086C502.189 124.014 502.002 122.948 501.612 121.95C501.222 120.952 500.636 120.042 499.889 119.274C499.143 118.506 498.25 117.896 497.264 117.48C496.278 117.063 495.219 116.848 494.148 116.848C493.078 116.848 492.019 117.063 491.033 117.48C490.047 117.896 489.154 118.506 488.408 119.274C487.661 120.042 487.075 120.952 486.685 121.95C486.295 122.948 486.108 124.014 486.136 125.086L486.114 125.064Z" fill="#89ABD9"/>
<path d="M453.667 144.892C454.988 149.125 466.476 158.995 466.476 158.995C466.476 158.995 470.298 144.329 468.965 140.096C468.275 138.135 466.851 136.519 464.994 135.589C463.138 134.658 460.993 134.485 459.012 135.107C457.03 135.728 455.367 137.096 454.372 138.921C453.377 140.746 453.129 142.887 453.678 144.892H453.667Z" fill="#89ABD9"/>
<path d="M424.801 168.5C425.391 172.874 435.044 184.561 435.044 184.561C435.044 184.561 441.274 170.753 440.684 166.362C440.567 165.298 440.239 164.268 439.719 163.333C439.198 162.398 438.497 161.576 437.655 160.917C436.813 160.257 435.848 159.773 434.817 159.493C433.786 159.213 432.709 159.141 431.649 159.284C430.59 159.427 429.57 159.78 428.649 160.323C427.729 160.866 426.926 161.589 426.288 162.447C425.65 163.306 425.189 164.284 424.934 165.323C424.679 166.363 424.634 167.443 424.801 168.5Z" fill="#89ABD9"/>
<path opacity="0.25" d="M525.305 114.477C522.127 117.561 507.336 120.755 507.336 120.755C507.336 120.755 510.967 106.044 514.145 102.955C515.679 101.516 517.715 100.739 519.815 100.789C521.916 100.84 523.912 101.715 525.375 103.225C526.838 104.736 527.651 106.761 527.637 108.866C527.624 110.97 526.786 112.985 525.305 114.477Z" fill="black"/>
<path opacity="0.25" d="M516.94 141.07C512.572 141.934 498.448 136.564 498.448 136.564C498.448 136.564 509.477 126.174 513.817 125.326C514.859 125.095 515.937 125.074 516.988 125.265C518.038 125.456 519.04 125.856 519.934 126.44C520.828 127.024 521.596 127.782 522.194 128.668C522.792 129.554 523.207 130.55 523.415 131.599C523.623 132.648 523.62 133.727 523.405 134.775C523.191 135.822 522.77 136.816 522.167 137.699C521.564 138.581 520.791 139.334 519.893 139.912C518.996 140.491 517.992 140.885 516.94 141.07Z" fill="black"/>
<path opacity="0.25" d="M486.497 169.878C482.314 168.429 472.809 156.639 472.809 156.639C472.809 156.639 487.55 153.259 491.743 154.708C492.751 155.043 493.682 155.575 494.482 156.273C495.283 156.971 495.937 157.821 496.407 158.775C496.877 159.728 497.153 160.765 497.219 161.826C497.285 162.887 497.141 163.951 496.793 164.955C496.446 165.96 495.903 166.885 495.195 167.678C494.488 168.471 493.63 169.114 492.672 169.572C491.714 170.03 490.675 170.293 489.615 170.346C488.555 170.398 487.495 170.239 486.497 169.878Z" fill="black"/>
<path opacity="0.25" d="M458.521 186.48C454.153 185.758 442.819 175.724 442.819 175.724C442.819 175.724 456.79 169.894 461.152 170.616C463.252 170.962 465.129 172.129 466.369 173.861C467.609 175.592 468.112 177.746 467.767 179.849C467.422 181.952 466.256 183.832 464.527 185.074C462.799 186.317 460.648 186.82 458.548 186.475L458.521 186.48Z" fill="black"/>
<path opacity="0.25" d="M486.114 125.064C486.109 129.499 494.14 142.366 494.14 142.366C494.14 142.366 502.161 129.515 502.161 125.086C502.189 124.014 502.002 122.948 501.612 121.95C501.222 120.952 500.636 120.042 499.889 119.274C499.143 118.506 498.25 117.896 497.264 117.48C496.278 117.063 495.219 116.848 494.148 116.848C493.078 116.848 492.019 117.063 491.033 117.48C490.047 117.896 489.154 118.506 488.408 119.274C487.661 120.042 487.075 120.952 486.685 121.95C486.295 122.948 486.108 124.014 486.136 125.086L486.114 125.064Z" fill="black"/>
<path opacity="0.25" d="M453.667 144.892C454.988 149.125 466.476 158.995 466.476 158.995C466.476 158.995 470.298 144.329 468.965 140.096C468.275 138.135 466.851 136.519 464.994 135.589C463.138 134.658 460.993 134.485 459.012 135.107C457.03 135.728 455.367 137.096 454.372 138.921C453.377 140.746 453.129 142.887 453.678 144.892H453.667Z" fill="black"/>
<path opacity="0.25" d="M424.801 168.5C425.391 172.874 435.044 184.561 435.044 184.561C435.044 184.561 441.274 170.753 440.684 166.362C440.567 165.298 440.239 164.268 439.719 163.333C439.198 162.398 438.497 161.576 437.655 160.917C436.813 160.257 435.848 159.773 434.817 159.493C433.786 159.213 432.709 159.141 431.649 159.284C430.59 159.427 429.57 159.78 428.649 160.323C427.729 160.866 426.926 161.589 426.288 162.447C425.65 163.306 425.189 164.284 424.934 165.323C424.679 166.363 424.634 167.443 424.801 168.5Z" fill="black"/>
<path d="M425.042 199.172C425.042 199.172 428.678 161.637 450.331 141.677C459.464 133.358 465.659 122.299 467.988 110.157C469.048 104.384 469.576 98.5267 469.566 92.6576" stroke="#535461" stroke-width="2" stroke-miterlimit="10"/>
<path d="M483.139 79.9926C481.501 84.1049 469.249 93.0295 469.249 93.0295C469.249 93.0295 466.618 78.106 468.272 73.9937C469.068 72.0191 470.615 70.4423 472.573 69.61C474.53 68.7778 476.737 68.7584 478.708 69.5561C480.68 70.3538 482.254 71.9032 483.085 73.8635C483.916 75.8238 483.935 78.0344 483.139 80.0091V79.9926Z" fill="#89ABD9"/>
<path d="M486.256 107.729C482.637 110.277 467.529 111.114 467.529 111.114C467.529 111.114 473.415 97.1472 477.035 94.5989C477.893 93.9554 478.872 93.4909 479.913 93.2331C480.954 92.9752 482.036 92.9291 483.095 93.0976C484.154 93.2661 485.168 93.6457 486.078 94.214C486.988 94.7822 487.775 95.5275 488.392 96.4058C489.009 97.2841 489.444 98.2775 489.671 99.3271C489.898 100.377 489.912 101.461 489.713 102.517C489.514 103.572 489.105 104.577 488.512 105.471C487.918 106.365 487.151 107.131 486.256 107.723V107.729Z" fill="#89ABD9"/>
<path d="M470.063 146.434C465.651 146.806 452.188 139.872 452.188 139.872C452.188 139.872 464.308 130.795 468.72 130.423C470.838 130.244 472.941 130.916 474.564 132.29C476.188 133.665 477.201 135.629 477.379 137.751C477.557 139.872 476.886 141.978 475.514 143.605C474.142 145.231 472.181 146.245 470.063 146.423V146.434Z" fill="#89ABD9"/>
<path d="M451.221 172.951C446.935 174.045 432.5 169.522 432.5 169.522C432.5 169.522 442.911 158.525 447.197 157.41C449.255 156.875 451.44 157.181 453.273 158.261C455.105 159.34 456.434 161.104 456.968 163.165C457.501 165.226 457.196 167.415 456.118 169.25C455.04 171.085 453.279 172.417 451.221 172.951Z" fill="#89ABD9"/>
<path d="M451.603 105.607C453.394 109.659 465.919 118.184 465.919 118.184C465.919 118.184 468.048 103.179 466.257 99.1268C465.365 97.231 463.768 95.7599 461.807 95.0278C459.846 94.2958 457.677 94.3609 455.764 95.2093C453.85 96.0576 452.344 97.6218 451.566 99.5678C450.789 101.514 450.802 103.687 451.603 105.623V105.607Z" fill="#89ABD9"/>
<path d="M429.961 136.897C432.882 140.228 447.372 144.592 447.372 144.592C447.372 144.592 444.926 129.635 442.005 126.305C441.316 125.496 440.473 124.832 439.525 124.352C438.577 123.873 437.543 123.586 436.484 123.51C435.425 123.433 434.361 123.569 433.355 123.908C432.348 124.247 431.419 124.783 430.621 125.484C429.823 126.186 429.172 127.04 428.706 127.996C428.24 128.952 427.969 129.991 427.907 131.053C427.846 132.115 427.996 133.178 428.348 134.182C428.701 135.185 429.249 136.108 429.961 136.897Z" fill="#89ABD9"/>
<path d="M413.096 170.211C415.411 173.985 428.956 180.738 428.956 180.738C428.956 180.738 429.071 165.585 426.772 161.806C425.628 160.062 423.85 158.832 421.816 158.378C419.782 157.924 417.651 158.282 415.876 159.375C414.1 160.468 412.82 162.211 412.306 164.234C411.792 166.257 412.085 168.401 413.123 170.211H413.096Z" fill="#89ABD9"/>
<path d="M397.197 52.1746C398.103 48.8443 399.195 45.4976 399.96 42.1236C399.042 45.4976 397.945 48.8552 397.197 52.1746Z" fill="url(#paint0_linear_12_407)"/>
<path d="M393.135 84.2526C393.058 84.1213 393.004 83.9901 392.944 83.8698C392.944 83.8151 392.889 83.7714 392.867 83.7167C392.748 83.7729 392.626 83.8222 392.502 83.8643C392.261 83.9573 392.016 84.0448 391.764 84.1159C391.513 84.187 391.41 84.2252 391.218 84.269C391.06 84.3237 390.898 84.3657 390.733 84.3948L390.776 84.4932C390.978 84.4495 391.175 84.4112 391.377 84.3565L391.431 85.0346C391.661 85.0346 391.874 85.0018 392.081 85.0018C392.179 84.9964 392.278 84.9964 392.376 85.0018C392.802 85.0018 393.173 85.0018 393.468 85.0018C393.353 84.7557 393.233 84.4987 393.135 84.2526ZM503.968 260.955C501.402 257.493 496.28 220.341 496.28 220.341C496.28 220.341 486.207 193.923 488.954 183.379C491.7 172.836 481.452 145.86 481.452 145.86C481.452 145.86 474.682 142.913 474.316 138.538C474.316 138.538 446.673 129.788 445.379 123.226C444.331 117.845 427.187 113.985 421.029 112.765C419.151 105.175 417.262 98.0933 415.869 94.2271C415.493 93.024 415.138 91.985 414.81 91.1647C412.457 85.1494 405.185 84.6026 399.91 85.0838C399.682 84.0586 399.257 83.0874 398.66 82.2238C398.573 81.9269 398.4 81.6624 398.163 81.4637C398.05 81.367 397.93 81.2793 397.803 81.2012C397.707 81.024 397.582 80.8648 397.432 80.7309C397.282 80.5957 397.117 80.4783 396.94 80.3809C396.813 80.3122 396.682 80.2519 396.547 80.2005C396.231 80.0798 395.904 79.99 395.57 79.9325C395.181 79.8524 394.787 79.8012 394.391 79.7794C395.354 79.3572 396.213 78.728 396.908 77.9365C397.38 77.3808 397.731 76.7327 397.939 76.0335C398.112 75.452 398.19 74.8462 398.169 74.2398C398.027 74.4897 397.863 74.7259 397.677 74.9453C397.907 72.5227 396.629 70.0619 395.898 67.6503C395.011 64.5108 394.847 61.2108 395.417 57.9985C396.149 53.1534 397.961 48.2537 399.19 43.3212C399.193 43.2939 399.193 43.2664 399.19 43.2391C399.834 40.7895 400.233 38.2817 400.38 35.7528C400.593 30.6507 399.288 25.5596 397.191 20.9114C395.33 16.7936 392.583 12.7415 388.379 11.0682C385.256 9.80496 381.757 10.0073 378.394 9.79949C370.848 9.3292 363.652 6.67153 356.478 4.25447C349.304 1.83741 341.922 -0.360913 334.372 0.0601588C326.821 0.48123 319.052 4.12869 315.606 10.8221C314.514 12.911 313.887 15.2351 312.582 17.1983C310.136 20.9005 305.757 22.7543 302.104 25.308C298.452 27.8618 295.236 31.4874 293.915 35.813C293.193 38.1434 293.092 40.6221 293.62 43.004C293.739 43.5419 293.892 44.0716 294.079 44.5898C294.597 46.0347 295.405 47.358 296.454 48.4779C297.244 49.3056 298.153 50.0114 299.151 50.5723C300.403 51.2677 301.744 51.7902 303.136 52.1254C303.087 52.2894 303.038 52.4644 302.983 52.6339C302.896 52.9128 302.82 53.1808 302.738 53.4816C302.558 54.1542 302.388 54.8377 302.246 55.5268C302.241 55.5758 302.241 55.6254 302.246 55.6744C301.576 58.7849 301.239 61.9582 301.242 65.1403C301.241 66.6453 301.317 68.1493 301.471 69.6463C303.655 91.8373 321.945 109.342 344.543 110.479C345.318 110.518 346.099 110.539 346.891 110.539C347.251 110.539 347.606 110.539 347.983 110.539C348.338 111.01 348.687 111.491 349.02 111.961C349.353 112.432 349.659 112.913 349.948 113.383L349.157 112.563L348.365 111.836C348.15 112.131 347.911 112.407 347.65 112.661C347.133 112.479 346.606 112.33 346.072 112.213C343.806 111.71 340.355 111.524 335.813 112.896C331.636 114.149 326.531 116.724 320.558 121.619L291.452 139.118L275.707 148.709L270.034 162.599C270.034 162.599 265.77 179.103 261.025 198.013C260.84 198.068 260.659 198.122 260.479 198.188C260.095 198.144 259.709 198.122 259.322 198.122C256.569 198.116 253.921 199.178 251.934 201.086C249.946 202.994 248.775 205.599 248.664 208.354C239.23 219.838 238.695 231.321 240.912 236.593C241.112 237.087 241.365 237.558 241.665 237.998C243.117 240.098 245.831 245.512 248.582 251.281C248.512 251.757 248.468 252.156 248.446 252.457C248.441 252.555 248.441 252.654 248.446 252.752C248.446 252.752 250.084 277.53 244.624 284.633C243.428 286.181 243.609 288.215 244.624 290.468C248.282 298.573 262.745 309.395 262.745 309.395C262.745 309.395 280.091 309.302 289.754 308.246C289.727 309.22 289.705 310.188 289.684 311.134C289.465 320.692 289.465 328.704 289.465 328.704L289.105 338.727C289.105 338.727 285.829 359.852 284.191 365.676C283.159 369.329 284.349 403.151 285.387 428.016H456.288C458.297 413.306 455.463 368.613 455.463 368.613C455.463 368.613 452.772 357.058 452.673 346.985C452.668 346.974 452.665 346.962 452.665 346.949C452.665 346.937 452.668 346.925 452.673 346.914C452.673 346.033 452.673 345.175 452.706 344.333L453.946 344.289L456.173 344.212H456.375C456.375 344.212 456.43 344.004 456.555 343.665C456.85 342.821 457.252 342.018 457.751 341.276C458.701 339.87 460.186 338.492 462.419 338.399C463.653 338.35 465.564 337.349 467.721 335.873C467.735 335.876 467.75 335.876 467.764 335.873C473.568 331.941 481.239 324.684 483.101 323.492C485.661 321.852 497.924 310.915 497.924 310.915C497.924 310.915 499.753 308.596 501.702 305.802L501.773 305.703C504.197 302.204 506.774 298.02 506.141 296.702C505.049 294.34 506.872 288.691 506.872 288.691C512.567 278.252 506.534 264.416 503.968 260.955ZM398.393 92.756C398.445 92.9193 398.478 93.0882 398.491 93.2591C398.354 93.0787 398.218 92.8873 398.081 92.7123L397.95 92.5373L397.858 92.4061L398.065 92.1217C398.065 92.1217 398.065 92.1217 398.065 92.16C398.209 92.3373 398.32 92.5392 398.393 92.756ZM396.558 87.911C395.963 88.0313 395.493 88.1407 395.188 88.2227C394.8 87.5337 394.429 86.8446 394.096 86.1447C394.971 86.6533 395.796 87.2448 396.558 87.911ZM395.532 88.775C395.53 88.7641 395.53 88.7531 395.532 88.7422L395.575 88.775C395.799 88.9227 396.018 89.0648 396.22 89.2125C396.4 89.3437 396.564 89.4695 396.727 89.6007C396.618 89.7921 396.498 89.989 396.378 90.1476C396.187 89.8468 396.007 89.557 395.832 89.2562C395.723 89.1359 395.625 88.9719 395.532 88.775ZM392.256 82.0269C393.311 81.9227 394.373 81.9227 395.428 82.0269C395.575 82.0269 395.706 82.0543 395.837 82.0761C396.134 82.122 396.424 82.1971 396.706 82.3003C397.351 83.2045 397.748 84.2622 397.858 85.3682L397.563 85.4119L397.273 85.4666C396.727 85.5595 396.181 85.6525 395.756 85.74L395.21 85.8548C394.483 86.0134 394.063 86.1337 394.047 86.1392C393.976 85.9916 393.905 85.8548 393.828 85.7127C393.708 85.4775 393.583 85.2369 393.473 85.0018C393.364 84.7666 393.222 84.4987 393.108 84.2526C393.031 84.1213 392.977 83.9901 392.916 83.8698C392.916 83.8151 392.862 83.7714 392.84 83.7167C392.808 83.6587 392.781 83.5983 392.758 83.5362C392.425 82.8581 392.119 82.18 391.825 81.5129C391.792 81.4473 391.764 81.3762 391.737 81.3106L392.152 81.2832V81.4254L392.256 82.0269ZM261.992 421.257C261.948 413.115 261.358 404.305 259.72 396.037C259.022 392.521 258.301 389.004 257.569 385.548C257.384 384.684 257.203 383.831 257.023 382.978L255.342 383.202H255.189C250.603 361.542 245.809 342.457 245.809 342.457C245.809 342.457 236.287 306.042 237.39 303.139C237.532 302.761 237.352 301.744 236.948 300.251C234.644 291.972 225.024 269.158 221.66 261.36C221.66 261.327 221.633 261.289 221.622 261.261C221.076 259.954 220.683 259.074 220.563 258.817L221.355 247.18L221.398 246.48L221.502 244.993L221.458 244.954L221.502 244.265C221.502 244.265 213.192 237.441 199.117 232.514C198.571 232.317 197.992 232.125 197.419 231.939C198.123 227.231 199.057 221.916 200.275 216.737C200.389 216.217 200.515 215.714 200.646 215.206C200.761 214.697 200.892 214.205 201.023 213.707C201.23 212.898 201.454 212.1 201.683 211.312C202.442 211.072 203.19 210.804 203.927 210.519L204.211 210.41C213.291 206.871 220.783 200.157 225.301 191.51C229.818 182.864 231.054 172.871 228.78 163.381C227.483 157.999 225.089 152.945 221.748 148.534C221.497 148.195 221.229 147.856 220.962 147.523C220.694 147.189 220.372 146.817 220.072 146.478C221.65 142.885 223.511 139.468 223.664 135.973C223.691 135.531 223.691 135.087 223.664 134.644V134.59C223.462 132.342 222.468 130.067 220.154 127.678C216.774 124.172 211.964 122.395 207.154 121.542C202.344 120.689 197.441 120.667 192.604 120.093C184.583 119.13 176.77 116.653 168.75 115.893C158.871 114.977 148.925 116.674 139.906 120.815C133.939 123.549 127.895 128.328 127.534 134.885C127.24 140.304 131.007 145.499 130.057 150.853C129.112 156.114 123.762 160.253 124.231 165.574C124.411 167.652 125.476 169.511 126.808 171.168C127.267 171.715 127.753 172.262 128.255 172.809C130.199 174.87 132.339 176.85 133.425 179.448C133.469 179.557 133.513 179.666 133.551 179.776C134.474 182.34 134.059 185.583 131.777 187.054C131.789 187.064 131.799 187.077 131.804 187.092C131.837 187.136 131.869 187.169 131.897 187.213C131.9 187.204 131.9 187.194 131.897 187.185C132.706 188.146 133.797 188.827 135.014 189.132L135.478 189.274C135.102 189.685 134.747 190.111 134.386 190.559L134.152 190.871C133.55 191.681 133.003 192.531 132.514 193.414C132.235 193.906 131.968 194.398 131.744 194.89C130.995 196.391 130.454 197.986 130.133 199.632C129.549 203.252 130.373 207.025 129.489 210.569C128.397 214.943 124.941 218.301 122.992 222.364C119.301 230.02 121.392 239.005 122.135 247.459C123.145 258.943 121.507 270.476 119.874 281.883C119.008 287.949 118.142 294.021 117.275 300.098C115.092 315.352 112.908 330.605 110.724 345.858C109.927 351.447 108.982 357.342 105.264 361.657H105.302C105.302 361.657 105.302 361.689 105.264 361.7C106.38 362.189 107.567 362.496 108.78 362.608C113.634 363.095 118.777 360.743 123.145 358.173C126.604 356.171 129.88 353.867 132.934 351.288C132.486 352.929 132.006 354.717 131.493 356.642C131.494 356.66 131.494 356.679 131.493 356.697C125.329 380.211 115.414 423.319 115.414 423.319C115.414 423.319 114.513 425.195 113.344 427.989H267.309C265.508 425.802 263.832 423.707 262.521 422.018L261.992 421.257ZM147.992 203.831C148.03 203.766 148.058 203.706 148.096 203.645C148.096 203.82 148.096 203.99 148.096 204.154C148.096 204.318 148.096 204.466 148.096 204.619C148.096 204.772 148.096 204.756 148.096 204.832C148.096 205.056 148.047 205.281 148.008 205.505C148.008 205.505 148.008 205.532 148.008 205.554L148.554 205.756L149.188 206.019C152.929 207.499 156.719 208.839 160.555 210.038C160.948 210.164 161.347 210.284 161.745 210.399L161.827 211.077C161.925 211.772 162.018 212.477 162.105 213.182C162.105 213.182 162.105 213.215 162.105 213.237C162.351 215.189 162.591 217.136 162.804 219.039C162.804 219.039 152.78 215.211 152.906 221.024C152.9 221.128 152.9 221.232 152.906 221.336C152.895 221.474 152.895 221.613 152.906 221.752C152.999 226.279 154.413 228.964 154.697 230.343C154.68 230.4 154.65 230.452 154.609 230.496C154.367 231.024 154.284 231.611 154.369 232.185C154.359 233.164 154.436 234.141 154.598 235.106C154.303 235.286 154.014 235.466 153.725 235.652C153.506 235.789 153.299 235.942 153.086 236.095C151.747 231.442 149.994 226.918 147.85 222.577C146.349 219.482 144.662 216.256 144.678 212.86C144.678 212.641 144.678 212.417 144.705 212.193C144.766 211.208 144.953 210.236 145.262 209.3C145.388 208.944 145.524 208.594 145.677 208.25C146.034 207.431 146.433 206.632 146.873 205.855C147.157 205.341 147.457 204.832 147.746 204.318C147.839 204.165 147.927 204.006 148.014 203.853L147.992 203.831ZM393.135 84.2526C393.058 84.1213 393.004 83.9901 392.944 83.8698C392.944 83.8151 392.889 83.7714 392.867 83.7167C392.748 83.7729 392.626 83.8222 392.502 83.8643C392.261 83.9573 392.016 84.0448 391.764 84.1159C391.513 84.187 391.41 84.2252 391.218 84.269L390.733 84.3948L390.776 84.4932C390.978 84.4495 391.175 84.4112 391.377 84.3565L391.431 85.0346C391.661 85.0346 391.874 85.0018 392.081 85.0018H392.376C392.802 85.0018 393.173 85.0018 393.468 85.0018C393.353 84.7557 393.233 84.4987 393.135 84.2526Z" fill="url(#paint1_linear_12_407)"/>
<path d="M273.839 164.573L270.563 166.022C270.563 166.022 249.21 249.11 249.21 255.825C249.21 262.541 294.488 299.907 294.488 299.907L301.553 252.145C301.553 252.145 291.409 142.617 273.839 164.573Z" fill="#E8F5FF"/>
<path d="M373.158 138.144L354.24 128.257C353.18 123.733 351.3 119.442 348.692 115.598C345.924 111.595 342.245 107.663 337.658 105.612C326.067 100.406 386.687 73.0805 386.687 73.0805C387.642 76.3631 388.766 79.5939 390.056 82.7597C393.179 90.4812 398.36 100.467 405.037 103.31C416.388 108.15 373.158 138.144 373.158 138.144Z" fill="#FFC1C7"/>
<path opacity="0.1" d="M390.056 82.7597C387.465 91.8838 382.079 99.9624 374.657 105.855C367.235 111.747 358.153 115.155 348.692 115.598C345.924 111.595 342.245 107.663 337.658 105.612C326.067 100.406 386.687 73.0805 386.687 73.0805C387.642 76.3631 388.766 79.5939 390.056 82.7597Z" fill="black"/>
<path d="M391.759 68.9628C391.761 77.9112 389.114 86.6593 384.152 94.1006C379.19 101.542 372.136 107.342 363.882 110.768C355.628 114.194 346.546 115.091 337.783 113.346C329.021 111.601 320.971 107.293 314.653 100.966C308.336 94.6384 304.033 86.5768 302.29 77.8004C300.547 69.0239 301.442 59.9268 304.861 51.6596C308.28 43.3924 314.07 36.3266 321.499 31.3556C328.928 26.3847 337.662 23.732 346.596 23.7331C352.534 23.7056 358.419 24.8567 363.91 27.1199C369.402 29.3831 374.391 32.7135 378.59 36.9189C382.79 41.1243 386.115 46.1213 388.376 51.6212C390.636 57.1212 391.786 63.0152 391.759 68.9628Z" fill="#FFC1C7"/>
<path d="M398.278 132.337L385.961 161.123L375.096 180.23H340.317L330.173 154.107L334.284 127.016H360.846L377.995 126.048L383.788 124.112L387.522 126.234L398.278 132.337Z" fill="#575A89"/>
<path opacity="0.1" d="M394.036 93.9646C394.036 93.9646 401.718 95.6051 394.838 101.254C387.959 106.903 364.225 124.867 364.225 124.867C364.225 124.867 372.563 132.304 370.837 141.015L398.458 125.594L403.372 100.92C403.372 100.92 403.923 93.5052 394.036 93.9646Z" fill="black"/>
<path opacity="0.1" d="M369.658 124.867L352.088 127.771C352.088 127.771 355.714 141.196 353.901 145.007C353.846 145.126 353.801 145.248 353.765 145.374L346.596 164.781L351.968 180.022L370.564 154.621L364.225 145.007C364.225 145.007 370.925 136.115 374.91 133.031C378.896 129.947 369.658 124.867 369.658 124.867Z" fill="black"/>
<path d="M369.658 124.118L352.088 127.016C352.088 127.016 355.714 140.441 353.901 144.253C353.846 144.371 353.801 144.493 353.765 144.619L346.596 164.026L351.968 179.267L370.564 153.85L364.225 144.236C364.225 144.236 370.925 135.344 374.91 132.26C378.896 129.176 369.658 124.118 369.658 124.118Z" fill="#DCE6F2"/>
<path d="M394.773 92.5154C394.773 92.5154 402.455 94.156 395.57 99.8049C388.685 105.454 364.225 124.867 364.225 124.867C364.225 124.867 373.283 130.855 371.563 139.561L399.184 124.145L404.098 99.4713C404.098 99.4713 404.644 92.0561 394.773 92.5154Z" fill="#575A89"/>
<path opacity="0.1" d="M349.899 117.309C349.899 117.309 351.575 120.448 358.973 126.108C358.973 126.108 346.656 132.67 351.368 141.896L332.526 136.974L329.627 127.902L349.899 117.309Z" fill="black"/>
<path d="M349.173 116.588C349.173 116.588 350.849 119.726 358.247 125.386C358.247 125.386 345.93 131.916 350.642 141.168L331.805 136.247L328.906 127.18L349.173 116.588Z" fill="#575A89"/>
<path opacity="0.1" d="M398.278 132.337L385.961 161.123L375.118 180.23H340.317L330.173 154.107L334.279 127.016H341.666C341.546 133.337 343.85 140.764 343.702 143.525C343.451 148.064 350.461 172.552 350.461 172.552C350.461 172.552 365.132 148.786 370.925 146.67C374.566 145.341 382.281 134.284 387.517 126.234L398.278 132.337Z" fill="black"/>
<path d="M446.799 283.819L445.548 285.393C445.548 285.393 454.606 330.929 452.1 341.27C451.674 343.134 451.431 345.035 451.374 346.946V347.029C450.932 357.55 454.104 371.205 454.104 371.205C454.104 371.205 456.637 411.452 455.196 428.005H285.605C284.611 403.529 283.541 371.817 284.513 368.301C286.151 362.499 289.427 341.451 289.427 341.451L289.787 331.476C289.787 331.476 289.787 321.835 290.082 311.095C290.208 306.267 290.393 301.197 290.661 296.702C291.005 291.048 291.485 286.285 292.146 283.944C292.553 282.17 292.787 280.361 292.845 278.542C292.845 278.372 292.845 278.197 292.877 278.022C292.877 277.475 292.932 276.885 292.954 276.278C292.954 276.108 292.954 275.939 292.954 275.731C293.058 272.209 293.019 268.031 292.905 263.7C292.905 263.465 292.905 263.224 292.905 262.984C292.812 259.735 292.675 256.422 292.523 253.272C292.048 243.429 291.431 235.106 291.431 235.106L270.602 165.984L276.214 152.138L291.791 142.579L320.591 125.162C334.639 113.596 343.888 114.985 347.415 116.254C347.757 116.371 348.093 116.508 348.42 116.664C348.529 116.719 348.616 116.763 348.698 116.812C348.81 116.865 348.918 116.927 349.02 116.998C348.054 117.463 347.215 118.155 346.574 119.016C345.852 119.995 345.337 121.111 345.062 122.297C344.877 123.032 344.748 123.779 344.674 124.533C344.603 125.326 344.576 126.146 344.576 126.972C344.615 128.783 344.77 130.59 345.04 132.38C345.04 132.413 345.04 132.457 345.04 132.501C345.22 133.78 345.444 135.033 345.662 136.208C345.66 136.228 345.66 136.249 345.662 136.269C345.913 137.641 346.165 138.91 346.334 140.004C346.367 140.2 346.394 140.381 346.421 140.55C346.542 141.273 346.598 142.005 346.591 142.738C346.652 144.507 346.89 146.266 347.3 147.987C347.442 148.709 347.606 149.48 347.786 150.284C348.032 151.378 348.299 152.57 348.589 153.784C348.747 154.451 348.916 155.14 349.091 155.824C349.157 156.097 349.228 156.371 349.293 156.65L349.402 157.082C350.565 161.713 351.826 166.323 352.602 169.112C353.06 170.753 353.35 171.764 353.35 171.764C353.35 171.764 361.572 158.449 368.135 150.869C368.233 150.76 368.32 150.656 368.413 150.558C369.063 149.808 369.702 149.125 370.313 148.523C371.651 147.189 372.852 146.238 373.818 145.888C374.024 145.812 374.223 145.719 374.413 145.609C377.1 144.083 381.435 138.543 385.491 132.741C385.89 132.195 386.277 131.598 386.671 131.035C387.571 129.734 388.445 128.427 389.269 127.175C389.903 126.218 390.509 125.288 391.082 124.402C393.812 120.148 395.734 116.976 395.734 116.976L399.523 116.806L400.183 116.774H400.626L417.829 115.975C417.829 115.975 418.572 116.101 419.795 116.347C419.86 116.347 419.926 116.347 419.997 116.391C426.101 117.605 443.059 121.449 444.096 126.781C445.363 133.31 472.716 142.021 472.716 142.021C473.077 146.396 479.776 149.278 479.776 149.278C479.776 149.278 489.92 176.128 487.206 186.649C484.526 197.04 494.184 222.741 494.441 223.463L492.59 225.804L446.799 283.819Z" fill="#E8F5FF"/>
<path opacity="0.1" d="M394.03 92.0561C394.03 92.0561 410.775 87.2985 414.581 97.0925C418.386 106.887 426.898 146.44 426.898 146.44C426.898 146.44 404.797 150.612 399.004 146.44C395.606 143.964 391.401 142.862 387.227 143.356L374.73 151.881L371.039 150.787C371.039 150.787 391.033 121.017 395.379 110.9C399.725 100.784 401.193 96.2613 394.03 92.0561Z" fill="black"/>
<path d="M393.304 89.8687C393.304 89.8687 410.06 85.1111 413.882 94.9051C417.704 104.699 426.199 144.253 426.199 144.253C426.199 144.253 404.104 148.425 398.305 144.253C394.909 141.776 390.706 140.675 386.534 141.168L374.026 149.694L370.335 148.6C370.335 148.6 390.329 118.83 394.675 108.713C399.021 98.5963 400.467 94.0849 393.304 89.8687Z" fill="#E8F5FF"/>
<path opacity="0.1" d="M280.904 247.661C280.904 247.661 293.402 250.745 295.76 257.822C298.119 264.898 286.522 265.078 286.522 265.078C286.522 265.078 279.457 252.561 280.904 247.661Z" fill="black"/>
<path opacity="0.1" d="M327.454 299.907C327.454 299.907 296.847 362.679 303.912 368.667C310.977 374.655 327.454 299.907 327.454 299.907Z" fill="black"/>
<path opacity="0.1" d="M369.658 253.649C369.658 253.649 394.112 314.622 389.22 324.039C384.328 333.456 399.725 324.039 399.725 324.039L369.658 253.649Z" fill="black"/>
<path d="M403.71 313.879C403.71 313.879 321.115 317.871 345.209 343.633C369.303 369.395 418.747 344.726 418.747 344.726L403.71 313.879Z" fill="#FFC1C7"/>
<path opacity="0.1" d="M391.759 68.9628C391.767 74.8961 390.603 80.7725 388.336 86.254C387.577 86.3415 386.818 86.3962 386.086 86.429C384.994 84.0284 385.579 81.2559 385.6 78.6146C385.622 75.9733 384.65 72.8672 382.112 72.1563C377.05 70.7291 373.556 80.2059 368.566 78.4943C364.744 77.1928 365.743 71.3853 363.543 68.0331C361.801 65.3809 358.313 64.6317 355.599 62.9693C349.828 59.4203 350.003 53.744 347.322 48.374C344.516 42.7469 338.587 44.4094 333.438 47.7287C329.529 50.2552 326.155 53.6401 321.972 55.6525C318.353 57.4024 314.285 58.0368 310.272 58.1297C307.802 58.2256 305.33 57.9641 302.934 57.3532C305.753 46.7411 312.328 37.5179 321.435 31.4036C330.542 25.2893 341.559 22.7013 352.43 24.1223C363.302 25.5433 373.286 30.8763 380.521 39.1267C387.756 47.3771 391.749 57.9816 391.754 68.9628H391.759Z" fill="black"/>
<path d="M333.454 46.2796C329.54 48.806 326.171 52.1855 321.989 54.2089C318.369 55.9533 314.302 56.5876 310.289 56.6806C305.375 56.79 300.084 55.926 296.727 52.3715C293.642 49.0904 292.905 44.043 294.21 39.7393C295.515 35.4356 298.643 31.8647 302.317 29.2781C305.992 26.6916 310.256 24.9034 312.691 21.2012C313.979 19.2435 314.602 16.9358 315.672 14.8523C319.095 8.18629 326.793 4.57711 334.235 4.12869C341.677 3.68028 349.053 5.90048 356.14 8.3066C363.226 10.7127 370.368 13.3595 377.848 13.8571C381.178 14.0649 384.639 13.8571 387.73 15.1203C391.885 16.8101 394.609 20.8512 396.465 24.9635C398.545 29.6008 399.839 34.6646 399.621 39.7284C399.162 50.5395 392.032 61.1483 395.166 71.5056C395.996 74.2672 397.552 77.0998 396.722 79.8614C395.51 83.8917 390.318 84.8104 386.119 85.0018C385.027 82.6011 385.611 79.8231 385.633 77.1873C385.655 74.5515 384.683 71.44 382.15 70.7291C377.083 69.3127 373.589 78.7732 368.61 77.067C364.815 75.7601 365.798 69.958 363.592 66.6059C361.851 63.9482 358.356 63.2045 355.648 61.5421C349.877 57.993 350.052 52.3168 347.371 46.9467C344.543 41.2924 338.608 42.9548 333.454 46.2796Z" fill="#99607E"/>
<path d="M253.365 254.371L249.199 255.826C249.199 255.826 250.837 280.499 245.378 287.575C239.918 294.652 263.307 312.244 263.307 312.244C263.307 312.244 295.367 312.063 296.273 309.509C297.18 306.956 294.635 263.793 294.635 263.793C294.635 263.793 277.426 257.078 278.873 246.376C278.873 246.376 273.621 271.591 265.835 270.503C258.05 269.415 249.21 262.902 253.365 254.371Z" fill="#E8F5FF"/>
<path opacity="0.1" d="M267.26 278.137C273.33 278.137 278.251 273.63 278.251 268.069C278.251 262.509 273.33 258.002 267.26 258.002C261.19 258.002 256.27 262.509 256.27 268.069C256.27 273.63 261.19 278.137 267.26 278.137Z" fill="black"/>
<path d="M279.277 255.098C279.277 255.098 277.093 188.339 258.082 203.213C239.072 218.088 238.886 235.877 242.506 241.132C246.126 246.387 257.733 272.696 257.733 272.696C259.549 273.75 261.588 274.358 263.683 274.47C265.779 274.583 267.871 274.196 269.789 273.343C271.706 272.489 273.395 271.192 274.716 269.559C276.037 267.926 276.953 266.002 277.388 263.946L279.277 255.098Z" fill="#FFC1C7"/>
<path opacity="0.1" d="M397.868 85.997C397.78 85.7037 397.609 85.4419 397.377 85.2424C396.438 84.3838 394.418 84.083 391.371 84.3455L391.497 85.7892C395.559 85.4392 396.362 86.2486 396.465 86.3853V86.522L396.591 86.7024C397.097 87.3842 397.456 88.1644 397.644 88.9931C397.832 89.8217 397.845 90.6806 397.683 91.5147C396.793 95.9715 391.328 99.5205 391.273 99.5588L391.142 99.6353L391.06 99.7611C388.702 103.266 375.363 113.159 371.875 115.718L371.569 115.368C370.007 116.724 356.282 128.76 355.539 133.37C355.059 136.263 351.805 137.384 350.625 137.696C349.38 136.75 345.34 133.529 343.238 129.92C341.267 126.524 349.2 119.896 349.899 117.309L348.807 116.188C348.692 116.604 338.505 126.141 341.338 131.013C343.609 134.923 347.759 138.27 349.211 139.375C348.747 143.596 345.859 168.385 341.42 174.258C335.906 181.558 331.27 218.35 331.784 231.196C332.237 242.608 329.261 264.165 319.324 273.423C317.604 275.096 315.529 276.358 313.253 277.116C310.978 277.873 308.561 278.107 306.183 277.798H306.063H305.943C305.801 277.798 291.387 279.274 279.277 269.048C269.368 260.698 263.755 247.071 262.587 228.532H262.347L262.248 223.135C264.935 222.715 267.355 221.268 268.999 219.099C270.643 216.929 271.384 214.206 271.065 211.501C270.747 208.796 269.394 206.32 267.291 204.593C265.188 202.867 262.499 202.023 259.788 202.241C257.077 202.459 254.556 203.72 252.755 205.76C250.953 207.8 250.011 210.461 250.127 213.182C250.243 215.903 251.407 218.473 253.375 220.353C255.343 222.232 257.962 223.275 260.681 223.261H260.801L260.9 228.625L260.419 228.658C261.62 247.798 267.517 261.956 277.89 270.7C285.775 277.244 295.846 280.545 306.068 279.936C306.793 280.015 307.523 280.056 308.252 280.056C312.937 280.08 317.446 278.264 320.81 274.998C331.276 265.237 334.459 242.887 333.962 231.086C333.416 217.475 338.281 182.007 343.162 175.549C347.944 169.211 350.844 144.515 351.351 139.73C353.082 139.243 356.997 137.707 357.663 133.715C358.143 130.827 367.31 121.93 372.95 117.003L372.781 116.806C375.817 114.586 385.256 107.586 389.935 103.091C391.388 101.697 392.829 100.302 394.336 98.9737C396.149 97.3659 398.453 94.8122 399.059 91.7936C399.265 90.7971 399.266 89.7689 399.062 88.7721C398.857 87.7753 398.451 86.8309 397.868 85.997Z" fill="black"/>
<path d="M349.026 139.03C348.796 138.872 343.358 134.973 340.634 130.281C337.806 125.408 347.994 115.877 348.103 115.461L349.195 116.582C348.501 119.163 340.568 125.796 342.539 129.187C345.024 133.469 350.254 137.215 350.309 137.253L349.026 139.03Z" fill="#353146"/>
<path d="M371.165 116.779L370.313 115.603C370.488 115.477 387.637 103.053 390.339 99.0338L390.427 98.9135L390.552 98.8315C390.607 98.7932 396.072 95.2496 396.962 90.7874C397.126 89.9542 397.114 89.0959 396.926 88.2679C396.738 87.4398 396.378 86.6606 395.87 85.9806L395.745 85.7947V85.6634C395.635 85.5213 394.833 84.7174 390.771 85.0674L390.645 83.6182C393.697 83.3557 395.712 83.6565 396.651 84.5151C396.885 84.7165 397.057 84.98 397.148 85.2752C397.738 86.1066 398.152 87.0504 398.364 88.0482C398.577 89.0461 398.583 90.077 398.382 91.0772C397.776 94.1013 395.477 96.655 393.659 98.2573C392.158 99.5861 390.711 100.992 389.264 102.375C383.777 107.641 371.765 116.347 371.165 116.779Z" fill="#E8F5FF"/>
<path d="M261.544 221.231L260.097 221.258L260.258 230.066L261.705 230.039L261.544 221.231Z" fill="#E8F5FF"/>
<path d="M259.977 222.566C265.812 222.566 270.542 217.829 270.542 211.985C270.542 206.141 265.812 201.403 259.977 201.403C254.142 201.403 249.412 206.141 249.412 211.985C249.412 217.829 254.142 222.566 259.977 222.566Z" fill="#89ABD9"/>
<path d="M259.977 220.773C264.823 220.773 268.751 216.838 268.751 211.985C268.751 207.131 264.823 203.197 259.977 203.197C255.131 203.197 251.203 207.131 251.203 211.985C251.203 216.838 255.131 220.773 259.977 220.773Z" fill="#E8F5FF"/>
<path d="M307.564 279.351C306.835 279.352 306.106 279.314 305.38 279.236C295.159 279.839 285.09 276.538 277.203 270C266.829 261.25 260.943 247.109 259.731 227.953L261.915 227.816C263.084 246.354 268.696 259.987 278.611 268.332C290.721 278.531 305.129 277.081 305.271 277.081H305.391H305.511C307.89 277.389 310.307 277.155 312.584 276.397C314.86 275.64 316.936 274.379 318.658 272.707C328.59 263.449 331.565 241.892 331.112 230.479C330.566 217.623 335.201 180.831 340.721 173.536C345.553 167.144 348.551 138.33 348.583 138.04L348.665 137.22L349.473 137.078C349.522 137.078 354.24 136.181 354.829 132.648C355.594 128.044 369.298 116.008 370.854 114.646L372.279 116.287C366.617 121.208 357.45 130.111 356.991 133.004C356.325 137.007 352.411 138.538 350.685 139.019C350.139 143.81 347.262 168.5 342.496 174.838C337.615 181.296 332.75 216.764 333.296 230.375C333.766 242.176 330.615 264.531 320.149 274.287C316.779 277.562 312.26 279.38 307.564 279.351Z" fill="#353146"/>
<g opacity="0.1">
<path d="M396.411 56.0353C397.306 52.7214 398.387 49.3857 399.141 46.028C398.24 49.4021 397.153 52.7214 396.411 56.0353Z" fill="black"/>
<path d="M387.277 82.0761C386.185 79.6755 386.769 76.8975 386.791 74.2617C386.812 71.6259 385.841 68.5417 383.307 67.8034C378.241 66.3871 374.746 75.853 369.767 74.1414C365.945 72.8344 366.955 67.0324 364.75 63.6802C363.008 61.0226 359.519 60.2788 356.811 58.6164C351.035 55.0674 351.209 49.3911 348.534 44.0211C345.722 38.3886 339.799 40.051 334.645 43.3758C330.73 45.9023 327.361 49.2872 323.179 51.3051C319.559 53.0495 315.492 53.6839 311.479 53.7768C306.592 53.8917 301.275 53.0222 297.917 49.4677C295.329 46.7335 294.395 42.7251 294.93 38.9682C294.837 39.2253 294.756 39.4823 294.674 39.7393C293.363 44.043 294.128 49.1013 297.191 52.3714C300.548 55.9259 305.866 56.79 310.753 56.6806C314.771 56.5876 318.833 55.9533 322.458 54.2088C326.651 52.1855 330.02 48.806 333.924 46.2796C339.078 42.9548 345.007 41.2923 347.813 46.9249C350.489 52.2949 350.319 57.9712 356.09 61.5202C358.82 63.1607 362.287 63.9263 364.034 66.584C366.218 69.9471 365.252 75.7382 369.052 77.0451C374.026 78.7513 377.52 69.2909 382.587 70.7072C385.12 71.4181 386.097 74.5351 386.07 77.1654C386.043 79.7958 385.475 82.5792 386.556 84.9799C390.754 84.7885 395.947 83.8862 397.164 79.8395C397.332 79.2588 397.409 78.6557 397.393 78.0513C395.619 81.1191 391.055 81.9066 387.277 82.0761Z" fill="black"/>
</g>
<path opacity="0.1" d="M485.951 216.819L492.289 223.534C492.289 223.534 497.362 260.539 499.895 264.001C502.428 267.462 508.412 281.232 502.794 291.573C502.794 291.573 500.981 297.2 502.068 299.557C503.154 301.914 493.922 313.709 493.922 313.709C493.922 313.709 481.785 324.591 479.246 326.226C476.707 327.862 463.309 340.92 458.783 341.101C454.257 341.281 452.777 346.908 452.777 346.908L427.236 347.816C427.236 347.816 413.128 347.078 410.06 349.074C410.06 349.074 411.698 327.484 395.936 313.332L416.039 306.075C416.039 306.075 423.649 302.794 426.003 299.365C427.483 297.263 429.583 295.678 432.008 294.832C432.008 294.832 437.621 290.84 437.801 288.664C437.981 286.487 444.664 283.819 444.664 283.819L440.88 251.473L442.873 197.772C442.873 197.772 449.212 152.778 462.616 155.321C476.019 157.864 485.951 216.819 485.951 216.819Z" fill="black"/>
<path d="M488.135 216.819L494.473 223.534C494.473 223.534 499.545 260.539 502.079 264.001C504.612 267.462 510.596 281.232 504.978 291.573C504.978 291.573 503.171 297.2 504.257 299.557C505.344 301.914 496.106 313.709 496.106 313.709C496.106 313.709 483.969 324.591 481.43 326.226C478.891 327.862 465.493 340.92 460.967 341.101C456.441 341.281 454.961 346.908 454.961 346.908L429.42 347.816C429.42 347.816 415.301 347.078 412.244 349.074C412.244 349.074 413.882 327.484 398.12 313.332L418.222 306.075C418.222 306.075 425.833 302.794 428.187 299.365C429.667 297.263 431.767 295.678 434.192 294.832C434.192 294.832 439.805 290.84 439.985 288.664C440.165 286.487 446.848 283.819 446.848 283.819L443.064 251.473L445.057 197.772C445.057 197.772 451.396 152.778 464.8 155.321C478.203 157.864 488.135 216.819 488.135 216.819Z" fill="#E8F5FF"/>
<path opacity="0.1" d="M464.57 271.066C464.57 271.066 483.226 266.145 488.118 272.16C493.01 278.175 464.57 271.066 464.57 271.066Z" fill="black"/>
<path opacity="0.1" d="M460.224 279.318C466.563 283.764 486.125 283.944 486.125 283.944L460.224 279.318Z" fill="black"/>
<path opacity="0.1" d="M469.823 301.542C470.369 301.722 483.27 315.514 488.686 311.341C494.102 307.169 469.823 301.542 469.823 301.542Z" fill="black"/>
<path opacity="0.1" d="M296.071 185.796C296.071 185.796 299.86 211.925 297.993 222.566C296.126 233.208 302.94 246.392 302.94 246.392L296.071 185.796Z" fill="black"/>
<path d="M212.188 196.422C207.82 199.85 204.632 207.966 202.322 216.885C198.293 232.442 196.977 250.483 196.977 250.483C196.977 250.483 162.198 242.499 164.732 238.873C166.326 236.593 164.186 219.411 162.4 206.954C161.336 199.593 160.386 193.879 160.386 193.879C160.386 193.879 224.145 186.983 212.188 196.422Z" fill="#FFCCD0"/>
<path opacity="0.1" d="M212.188 195.694C207.82 199.129 204.632 207.238 202.322 216.157C195.393 218.265 188.023 218.455 180.995 216.707C173.967 214.96 167.541 211.34 162.4 206.232C161.336 198.866 160.386 193.151 160.386 193.151C160.386 193.151 224.145 186.261 212.188 195.694Z" fill="black"/>
<path d="M230.882 176.15C230.886 185.661 227.53 194.867 221.408 202.139C215.286 209.41 206.794 214.278 197.433 215.881C188.073 217.484 178.448 215.718 170.262 210.896C162.077 206.075 155.858 198.508 152.707 189.536C149.555 180.563 149.675 170.764 153.044 161.871C156.413 152.978 162.814 145.566 171.115 140.946C179.416 136.326 189.08 134.796 198.399 136.627C207.718 138.459 216.089 143.533 222.032 150.951C227.758 158.098 230.88 166.987 230.882 176.15Z" fill="#FFCCD0"/>
<path opacity="0.1" d="M262.592 428.006H251.127L250.16 407.723L249.15 386.73C249.15 386.73 251.755 386.341 255.904 385.762L257.58 385.537H257.717C258.623 389.797 259.518 394.172 260.381 398.541C261.817 406.298 262.564 414.167 262.614 422.056C262.614 422.603 262.614 423.15 262.614 423.664C262.647 425.124 262.614 426.584 262.592 428.006Z" fill="black"/>
<path d="M260.392 428.005H116.604C117.226 426.589 117.641 425.731 117.641 425.731C117.641 425.731 129.145 375.322 134.992 353.995C134.994 353.977 134.994 353.959 134.992 353.941C135.723 351.044 136.605 348.187 137.635 345.382C137.701 345.192 137.787 345.009 137.891 344.836C140.785 340.122 144.41 335.042 139.338 327.785C134.266 320.528 136.062 288.598 136.062 288.598C136.062 288.598 142.221 261.381 148.74 246.868C149.729 244.62 151.133 242.579 152.879 240.853C153.446 240.297 154.052 239.782 154.691 239.311C155.177 238.945 155.684 238.607 156.209 238.299L156.313 238.233C159.051 236.678 162.092 235.733 165.228 235.461C167.456 235.228 169.705 235.29 171.917 235.647C182.487 237.2 190.949 239.797 197.676 242.756C215.906 250.778 221.426 261.529 221.535 261.753L221.579 261.846C222.31 263.558 233.011 288.582 236.866 300.257C237.865 303.297 238.411 305.435 238.193 306.021C237.101 308.919 246.524 345.202 246.524 345.202C246.524 345.202 250.892 362.701 255.26 383.213C255.451 384.066 255.631 384.919 255.806 385.783C256.586 389.508 257.362 393.303 258.11 397.092C259.559 404.902 260.306 412.827 260.343 420.771C260.423 423.246 260.439 425.658 260.392 428.005Z" fill="#83A0CC"/>
<path opacity="0.1" d="M164.371 222.982C164.371 222.982 154.451 219.154 154.571 224.962C154.691 230.769 156.99 233.547 156.264 234.395C155.537 235.242 156.624 240.322 156.624 240.322C156.624 240.322 170.028 240.322 176.186 243.1C182.345 245.878 205.046 251.445 207.946 253.141C210.845 254.836 221.595 262.437 221.595 262.437L222.561 248.044C222.561 248.044 211.451 238.851 193.221 234.138C174.991 229.424 164.371 222.982 164.371 222.982Z" fill="black"/>
<path d="M164.371 222.255C164.371 222.255 154.451 218.427 154.571 224.234C154.691 230.042 156.99 232.82 156.264 233.667C155.537 234.515 156.624 239.595 156.624 239.595C156.624 239.595 170.028 239.595 176.186 242.379C182.345 245.162 205.046 250.723 207.946 252.413C210.845 254.103 221.595 261.71 221.595 261.71L222.572 247.36C222.572 247.36 211.462 238.168 193.232 233.454C175.001 228.74 164.371 222.255 164.371 222.255Z" fill="#83A0CC"/>
<path opacity="0.1" d="M194.318 256.892C194.318 256.892 213.274 277.448 212.308 283.14C211.342 288.833 194.318 256.892 194.318 256.892Z" fill="black"/>
<path opacity="0.1" d="M163.525 331.148C163.525 331.148 149.63 343.972 145.535 344.699C141.44 345.426 148.674 347.843 153.381 345.913C158.087 343.983 168.122 338.902 168.122 338.902L163.525 331.148Z" fill="black"/>
<path d="M266.037 428.006H233.634C229.102 424.068 224.816 420.421 222.086 418.228C217.718 414.717 214.568 409.549 212.559 405.393C212.106 404.447 211.713 403.561 211.38 402.758C210.783 401.373 210.259 399.958 209.807 398.52L233.803 384.247C235.129 385.376 236.375 386.597 237.532 387.9L237.821 388.233C239.153 389.808 240.327 391.596 240.431 393.062C240.551 394.768 245.29 401.369 250.133 407.707C255.047 414.154 260.081 420.317 260.414 420.732C260.414 420.732 261.244 421.864 262.598 423.603C263.553 424.861 264.732 426.37 266.037 428.006Z" fill="#FFCCD0"/>
<path opacity="0.1" d="M222.032 150.951C220.88 153.554 219.848 156.256 219.695 159.154C219.264 167.521 219.962 186.228 210.714 190.428C206.133 192.495 201.23 187.956 196.207 187.847C192.593 187.771 189.279 190.067 187.073 192.938C184.867 195.809 183.497 199.216 181.897 202.464C180.441 205.413 178.764 208.246 176.88 210.94C176.316 211.765 175.696 212.549 175.023 213.286C169.384 210.903 164.362 207.261 160.34 202.64C156.318 198.018 153.403 192.537 151.816 186.616C150.23 180.695 150.013 174.489 151.184 168.471C152.355 162.453 154.881 156.783 158.571 151.891C162.262 147 167.018 143.016 172.478 140.245C177.938 137.473 183.957 135.986 190.078 135.898C196.198 135.809 202.258 137.121 207.795 139.734C213.333 142.346 218.202 146.19 222.032 150.973V150.951Z" fill="black"/>
<path d="M218.969 157.678C218.532 166.044 219.236 184.752 209.982 188.946C205.401 191.013 200.498 186.48 195.476 186.371C191.861 186.289 188.553 188.591 186.341 191.456C184.13 194.322 182.771 197.734 181.166 200.988C179.709 203.936 178.032 206.769 176.148 209.464C175.023 211.061 173.778 212.663 172.048 213.56C169.034 215.135 165.381 214.249 162.149 213.237C157.956 211.914 153.825 210.423 149.756 208.764C149.849 208.149 149.896 207.527 149.897 206.905C149.777 207.134 149.646 207.348 149.515 207.577L149.259 208.026C148.795 208.846 148.341 209.666 147.927 210.508C147.768 210.831 147.615 211.165 147.479 211.498C146.93 212.74 146.585 214.062 146.458 215.414C146.179 219.061 147.976 222.523 149.57 225.804C155.701 238.496 159.49 253.337 154.877 266.653C152.879 272.444 149.417 277.59 146.889 283.184C142.47 293.093 141.17 304.114 143.16 314.781C144.421 321.409 146.949 327.971 146.327 334.692C145.235 346.257 135.276 354.865 125.301 360.782C119.913 363.964 113.317 366.797 107.595 364.282C111.242 360.016 112.182 354.116 112.968 348.549C115.119 333.365 117.275 318.173 119.438 302.975C120.3 296.927 121.161 290.878 122.02 284.83C123.625 273.467 125.252 261.978 124.248 250.543C123.516 242.116 121.452 233.17 125.099 225.541C127.027 221.5 130.461 218.153 131.531 213.8C132.41 210.262 131.591 206.5 132.17 202.896C132.486 201.257 133.023 199.667 133.764 198.172C134.708 196.142 135.94 194.259 137.422 192.583C135.959 192.156 134.594 191.571 133.764 190.346C136.112 188.815 136.467 185.364 135.402 182.772C134.337 180.18 132.208 178.206 130.292 176.161C128.375 174.116 126.53 171.732 126.29 168.943C125.825 163.633 131.121 159.52 132.055 154.282C133 148.95 129.265 143.766 129.565 138.368C129.915 131.845 135.899 127.103 141.806 124.353C150.721 120.219 160.568 118.522 170.35 119.431C178.31 120.186 186.014 122.652 193.952 123.609C198.74 124.156 203.594 124.211 208.35 125.053C213.105 125.895 217.871 127.672 221.218 131.167C230.041 140.381 219.471 147.966 218.969 157.678Z" fill="#FFE0D0"/>
<path opacity="0.1" d="M211.587 405.399C208.803 404.19 203.736 404.912 195.039 402.26C186.341 399.608 184.665 387.621 184.665 387.621V387.583C184.561 387.309 183.753 385.526 178.283 379.281C172.239 372.386 159.174 337.557 159.174 337.557C159.174 337.557 147.588 325.094 147.954 320.501C148.32 315.907 145.896 303.685 146.136 290.014C146.376 276.343 172.217 267.276 172.217 267.276C221.972 258.445 210.255 315.897 208.928 320.249C207.602 324.602 214.486 336.36 214.486 336.36C213.515 341.478 218.472 349.402 218.472 349.402C218.472 349.402 219.673 356.412 219.919 359.075C219.932 359.199 219.96 359.32 220.001 359.436C220.798 361.946 227.295 364.221 229.937 365.605C232.716 367.059 241.654 379.757 241.654 379.757C243.581 389.081 214.361 406.624 211.587 405.399Z" fill="black"/>
<path d="M213.034 403.211C210.255 401.997 205.183 402.725 196.491 400.067C187.799 397.409 186.117 385.433 186.117 385.433V385.395C186.019 385.116 185.206 383.339 179.735 377.094C173.691 370.198 160.626 335.364 160.626 335.364C160.626 335.364 149.04 322.907 149.401 318.314C149.761 313.72 147.348 301.498 147.588 287.838C147.828 274.178 173.653 265.116 173.653 265.116C223.408 256.285 211.691 313.737 210.364 318.089C209.037 322.442 215.922 334.199 215.922 334.199C214.95 339.318 219.908 347.242 219.908 347.242C219.908 347.242 221.109 354.252 221.36 356.915C221.369 357.039 221.395 357.16 221.437 357.276C222.234 359.786 228.731 362.061 231.379 363.445C234.152 364.894 243.095 377.597 243.095 377.597C245.034 386.904 215.813 404.447 213.034 403.211Z" fill="#83A0CC"/>
<path opacity="0.1" d="M174.636 295.111C174.636 295.111 196.371 318.078 202.044 318.078C207.716 318.078 174.636 295.111 174.636 295.111Z" fill="black"/>
<path d="M213.034 403.211C210.255 401.997 205.183 402.725 196.491 400.067C187.799 397.409 186.117 385.434 186.117 385.434V385.395C191.878 381.567 206.466 370.756 212.215 366.802C216.261 364.03 219.564 359.956 221.497 357.255C222.294 359.765 228.791 362.039 231.439 363.423C234.212 364.872 243.155 377.575 243.155 377.575C245.034 386.905 215.813 404.447 213.034 403.211Z" fill="#83A0CC"/>
<g opacity="0.1">
<path d="M133.797 190.406C133.824 190.45 133.862 190.488 133.895 190.532C134.059 190.324 134.228 190.116 134.403 189.92C134.217 190.101 134.014 190.264 133.797 190.406Z" fill="black"/>
<path d="M146.463 215.474C146.693 212.439 148.314 209.765 149.832 207.096C148.838 206.713 147.845 206.325 146.862 205.92C146.955 205.307 147.003 204.687 147.004 204.067C145.47 206.801 143.799 209.491 143.564 212.57C143.286 216.223 145.082 219.679 146.676 222.96C152.813 235.647 156.597 250.488 151.983 263.809C149.979 269.595 146.523 274.746 143.996 280.341C139.578 290.247 138.279 301.267 140.272 311.932C141.522 318.565 144.056 325.122 143.433 331.843C142.341 343.408 132.388 352.016 122.408 357.927C118.329 360.344 113.563 362.559 109.004 362.4C108.582 363.081 108.111 363.73 107.595 364.342C113.323 366.874 119.913 364.024 125.301 360.831C135.287 354.925 145.262 346.339 146.354 334.752C146.977 328.031 144.443 321.474 143.187 314.841C141.194 304.177 142.489 293.159 146.9 283.25C149.412 277.661 152.906 272.504 154.888 266.719C159.501 253.398 155.712 238.556 149.581 225.869C147.992 222.566 146.185 219.127 146.463 215.474Z" fill="black"/>
<path d="M221.207 131.232C220.67 130.68 220.094 130.169 219.482 129.701C226.099 138.297 216.545 145.603 216.07 154.856C215.644 163.223 216.343 181.936 207.088 186.125C202.513 188.197 197.605 183.658 192.587 183.549C188.967 183.472 185.659 185.775 183.448 188.64C181.236 191.505 179.877 194.918 178.277 198.166C176.818 201.114 175.139 203.947 173.254 206.642C172.162 208.244 170.885 209.841 169.149 210.744C166.146 212.313 162.493 211.433 159.256 210.415C156.107 209.424 152.988 208.33 149.897 207.134C149.891 207.704 149.844 208.272 149.756 208.835C153.829 210.497 157.962 211.989 162.155 213.308C165.387 214.325 169.039 215.206 172.048 213.636C173.778 212.734 175.034 211.132 176.153 209.53C178.039 206.838 179.717 204.007 181.171 201.059C182.776 197.811 184.13 194.393 186.347 191.527C188.563 188.662 191.867 186.365 195.481 186.442C200.504 186.551 205.412 191.09 209.988 189.017C219.242 184.829 218.538 166.115 218.969 157.749C219.471 148.02 230.041 140.441 221.207 131.232Z" fill="black"/>
</g>
<path opacity="0.1" d="M149.264 208.031C148.8 208.851 148.347 209.672 147.932 210.514C147.774 210.836 147.621 211.17 147.484 211.504C144.623 208.616 137.657 201.753 133.769 199.626C134.715 197.597 135.947 195.715 137.427 194.037C137.427 194.037 146.693 198.943 149.264 208.031Z" fill="black"/>
<path d="M149.521 207.583C147.375 197.854 137.427 192.588 137.427 192.588C135.945 194.265 134.713 196.147 133.769 198.177C137.87 200.425 145.426 207.96 147.932 210.514L149.521 207.583Z" fill="#83A0CC"/>
</g>
<defs>
<linearGradient id="paint0_linear_12_407" x1="398.578" y1="52.1746" x2="398.578" y2="42.1236" gradientUnits="userSpaceOnUse">
<stop stop-color="#808080" stop-opacity="0.25"/>
<stop offset="0.54" stop-color="#808080" stop-opacity="0.12"/>
<stop offset="1" stop-color="#808080" stop-opacity="0.1"/>
</linearGradient>
<linearGradient id="paint1_linear_12_407" x1="307.291" y1="428.006" x2="307.291" y2="1.03867e-05" gradientUnits="userSpaceOnUse">
<stop stop-color="#808080" stop-opacity="0.25"/>
<stop offset="0.54" stop-color="#808080" stop-opacity="0.12"/>
<stop offset="1" stop-color="#808080" stop-opacity="0.1"/>
</linearGradient>
<clipPath id="clip0_12_407">
<rect width="593" height="428" fill="white"/>
</clipPath>
</defs>
</svg>
